# xmcd
#
# Track frame offsets: 
#        150
#        14686
#        37021
#        59170
#        76881
#        91653
#        112004
#        121822
#        137326
#        159751
#        178157
#        196287
#        212232
#        229397
#        246868
#        269218
#
# Disc length: 3844 seconds
#
# Revision: 1
# Processed by: cddbd v1.5.2PL0 Copyright (c) Steve Scherf et al.
# Submitted via: ExactAudioCopy v1.0b3
#
DISCID=e60f0210
DTITLE=Friend 'n Fellow - Light My Fire My Best Of Friend 'n Fellow
DYEAR=2006
DGENRE=Jazz
TTITLE0=Light My Fire
TTITLE1=One More Day
TTITLE2=Kiss The Rain
TTITLE3=Crystal
TTITLE4=Fly Like An Eagle
TTITLE5=Naked In A Jacked
TTITLE6=This Love
TTITLE7=Fairy Godmother
TTITLE8=Friend Of Mine
TTITLE9=Taxi
TTITLE10=Home
TTITLE11=Forbidden Wine
TTITLE12=What A Wonderful World
TTITLE13=Elf
TTITLE14=Light My Fire (Comeback Version)
TTITLE15=Taxi (Jannique Remix)
EXTD=
EXTT0=
EXTT1=
EXTT2=
EXTT3=
EXTT4=
EXTT5=
EXTT6=
EXTT7=
EXTT8=
EXTT9=
EXTT10=
EXTT11=
EXTT12=
EXTT13=
EXTT14=
EXTT15=
PLAYORDER=
